<?xml version="1.0" encoding="UTF-8"?>
<svg width="1329px" height="300px" viewBox="0 0 1329 300" version="1.1" xmlns="http://www.w3.org/2000/svg" xmlns:xlink="http://www.w3.org/1999/xlink">
    <title>Logo + LondonParkour (wide)</title>
    <g id="Logos" stroke="none" stroke-width="1" fill="none" fill-rule="evenodd">
        <g id="Glyph-+-Text-to-right" transform="translate(-154.000000, -345.000000)" fill="#242424">
            <g id="Logo-+-LondonParkour-(wide)" transform="translate(154.000000, 345.000000)">
                <path d="M0,0 L159.430028,0 L355.6516,300 L0,300 L0,0 Z M192.959911,0 L548.611511,0 L548.611511,300 L389.181483,300 L192.959911,0 Z" id="Logo_-_Squared"></path>
                <path d="M622.885127,160.810126 L622.885127,270 L643.975299,270 L643.975299,224.212017 L664.28917,224.212017 C673.605994,224.653492 682.740599,221.523344 689.832868,215.458979 C696.289891,209.637606 699.837478,201.250672 699.519936,192.557551 C699.797349,183.906148 696.299096,175.562376 689.93687,169.700743 C683.107193,163.6206 674.18185,160.440022 665.050615,160.832436 L622.877698,160.832436 L622.885127,160.810126 Z M643.241007,207.562506 L643.241007,176.4 L658.022122,176.4 C671.303482,176.4 677.944162,181.553736 677.944162,191.861207 C678.253403,196.315497 676.455666,200.657508 673.085873,203.59526 C669.174388,206.449791 664.387179,207.852869 659.549886,207.562506 L643.241007,207.562506 L643.241007,207.562506 Z M736.713294,160.8 L691.154676,270 L713.539099,270 L724.216077,243.42236 L773.336195,243.42236 L784.802947,270 L807.345324,270 L758.544876,160.814875 L736.713294,160.814875 L736.713294,160.8 Z M747.805945,182.4 L766.618705,226.8 L730.683453,226.8 L747.805945,182.4 Z M816.928058,160.826289 L816.928058,269.992565 L838.17864,269.992565 L838.17864,223.894768 L845.886745,223.894768 C849.087041,223.836731 852.233221,224.720089 854.930024,226.433864 C858.173066,228.768056 860.948448,231.684408 863.113107,235.03259 C867.991045,242.61486 872.454331,250.452939 876.483545,258.512726 C878.491095,262.449611 880.696736,266.283553 883.092095,270 L906.766187,270 C903.524869,264.998637 898.538225,255.88193 891.806255,242.64988 C888.96902,236.889657 885.57058,231.419751 881.659682,226.31862 C879.065732,223.193713 875.891445,220.593779 872.309724,218.660437 C878.048789,216.470131 883.032884,212.685102 886.667519,207.756821 C889.941008,202.986285 891.631837,197.31768 891.503317,191.544523 C891.78468,183.063167 888.200803,174.908454 881.749441,169.350664 C874.697205,163.479543 865.691329,160.441655 856.500817,160.833725 L816.928058,160.833725 L816.928058,160.826289 Z M838.489209,207.560043 L838.489209,176.444534 L851.580644,176.444534 C856.317846,176.131826 861.018879,177.47283 864.920346,180.249782 C868.173932,183.090894 869.911356,187.356308 869.596652,191.730214 C869.805901,196.127868 868.074554,200.388276 864.883291,203.328608 C861.216867,206.335024 856.598223,207.844655 851.914136,207.567654 L838.500325,207.567654 L838.489209,207.560043 Z M913.953237,160.8 L913.953237,270 L935.187717,270 L935.187717,216.376162 L984.966661,270 L1012.17626,270 L959.174191,212.233516 L1000.06524,160.8 L975.921723,160.8 L935.658846,211.218308 L935.187717,211.218308 L935.187717,160.814875 L913.953237,160.814875 L913.953237,160.8 Z M1025.77202,165.76483 C1016.85141,170.502478 1009.43529,177.661901 1004.36888,186.427161 C999.269309,195.018343 996.586652,204.838523 996.606931,214.840676 C996.405956,235.444418 1007.80625,254.395693 1026.05909,263.800441 C1045.5385,273.62551 1068.48604,273.668513 1088.00182,263.916521 C1106.23555,254.294161 1117.63551,235.292371 1117.58633,214.604454 C1117.53683,193.916537 1106.04637,174.969821 1087.76695,165.435311 C1068.15621,155.935359 1045.2769,156.062496 1025.77202,165.779808 L1025.77202,165.76483 Z M1024.11811,194.937736 C1027.24163,189.131435 1031.96066,184.385153 1037.69361,181.283818 C1050.17886,174.786736 1064.95272,174.771297 1077.45097,181.242271 C1083.21768,184.355086 1087.97303,189.113563 1091.13745,194.937736 C1094.42466,201.023157 1096.10121,207.878547 1096.0017,214.82751 C1096.36699,225.17319 1092.4568,235.199256 1085.22637,242.456392 C1077.85547,249.679547 1067.93377,253.546567 1057.72395,253.175567 C1050.83045,253.292826 1044.01998,251.627082 1037.92665,248.333431 C1032.19114,245.204971 1027.45227,240.465819 1024.26977,234.675736 C1020.9557,228.614608 1019.26515,221.768478 1019.36853,214.82751 C1019.25834,207.89658 1020.89381,201.052962 1024.11811,194.952844 L1024.11811,194.937736 Z M1128.38543,159.6 L1128.38543,225.845118 C1128.18397,234.282627 1130.20014,242.62285 1134.22761,250.012339 C1138.14719,256.891984 1144.06341,262.383195 1151.17254,265.739975 C1159.38788,269.541274 1168.34907,271.402344 1177.37902,271.18257 C1193.43237,271.18257 1205.84655,267.200336 1214.62155,259.235868 C1223.39656,251.271401 1227.7853,239.878586 1227.78777,225.057423 L1227.78777,159.615004 L1206.75294,159.615004 L1206.75294,222.296741 C1207.02987,228.17999 1205.96242,234.048605 1203.63365,239.445979 C1201.45156,243.676727 1198.00175,247.098749 1193.77937,249.220894 C1188.68267,251.751265 1183.05289,252.983487 1177.37902,252.810531 C1171.99774,252.933548 1166.67833,251.628776 1161.94928,249.025846 C1157.88629,246.861733 1154.56094,243.509193 1152.40618,239.404718 C1150.24949,234.473002 1149.24909,229.102906 1149.48324,223.714592 L1149.48324,159.615004 L1128.36691,159.615004 L1128.38543,159.6 Z M1238.57583,160.826406 L1238.57583,269.992565 L1259.81607,269.992565 L1259.81607,223.894817 L1267.5245,223.894817 C1270.72493,223.83678 1273.87124,224.720137 1276.56815,226.433911 C1279.81226,228.767042 1282.58794,231.683581 1284.75158,235.032628 C1289.62972,242.614889 1294.09319,250.45296 1298.12257,258.512739 C1300.13021,262.449619 1302.33594,266.283557 1304.7314,270 L1328.40647,270 C1325.16502,264.998642 1320.17817,255.881945 1313.44592,242.649909 C1310.6099,236.888964 1307.21124,231.418937 1303.29892,226.318666 C1300.70487,223.193763 1297.53045,220.593832 1293.94858,218.660492 C1299.68788,216.470188 1304.67218,212.685164 1308.30697,207.756888 C1311.5806,202.986357 1313.27149,197.317758 1313.14297,191.544607 C1313.42434,183.06326 1309.84032,174.908556 1303.38869,169.350772 C1296.33652,163.479019 1287.33001,160.441048 1278.13901,160.833842 L1238.56835,160.833842 L1238.57583,160.826406 Z M1260.1295,207.560043 L1260.1295,176.444534 L1273.22093,176.444534 C1277.95813,176.131826 1282.65917,177.47283 1286.56063,180.249782 C1289.81422,183.090894 1291.55164,187.356308 1291.23694,191.730214 C1291.44619,196.127868 1289.71484,200.388276 1286.52358,203.328608 C1282.85715,206.335024 1278.23851,207.844655 1273.55442,207.567654 L1260.15173,207.567654 L1260.1295,207.560043 Z" id="PARKOUR"></path>
                <path d="M622.877698,28.8 L622.877698,122.4 L675.767017,122.4 L675.767017,114.912 L630.433315,114.912 L630.433315,28.8 L622.877698,28.8 Z M715.905578,42.4285337 C734.706748,24.261954 764.089602,24.2565023 782.897207,42.4161041 C791.690772,51.1095337 796.65689,63.0856079 796.65689,75.5983594 C796.65689,88.1111109 791.690772,100.087185 782.897207,108.780615 C764.093645,126.939795 734.715212,126.939795 715.911651,108.780615 C707.15323,100.067648 702.211677,88.0988759 702.211677,75.5983594 C702.211677,63.0978429 707.15323,51.1290705 715.911651,42.4161041 L715.911651,42.4161041 Z M777.723451,46.9870736 C770.311447,39.3099351 760.138747,35.0933594 749.595712,35.3281494 C738.996384,35.0982648 728.765355,39.3099214 721.273653,46.9870736 C713.853905,54.571745 709.684799,64.8641356 709.684799,75.5968057 C709.684799,86.3294758 713.853905,96.6218664 721.273653,104.206538 L721.273653,104.206538 C728.761261,111.890342 738.994736,116.10098 749.595712,115.868569 C760.139394,116.103651 770.312572,111.885754 777.723451,104.206538 C793.009405,88.3412863 793.009405,62.8523251 777.723451,46.9870736 Z M917.668204,28.8 L917.546763,111.168 L845.768401,28.8 L838.212784,28.8 L838.212784,122.387252 L845.768401,122.387252 L845.768401,40.032 L917.668204,122.387252 L925.10238,122.4 L925.10238,28.8127481 L917.546763,28.8127481 L917.668204,28.8 Z M1006.32526,28.8 C1022.7547,28.8 1035.4422,33.1918839 1044.10335,41.904 C1061.36643,60.9362355 1061.52804,90.1946159 1044.34012,109.296 C1035.76742,118.116486 1023.97817,122.4 1008.21417,122.4 L1008.21417,122.4 L974.21389,122.396813 L974.21389,28.8 Z M1036.54773,45.648 C1028.24327,37.8887404 1017.63357,35.8207105 1006.32526,36.288 L1006.32526,36.288 L981.769507,36.288 L981.769507,114.912 L1006.32526,114.912 C1017.38468,115.271316 1028.3628,113.065674 1036.54773,105.552 C1044.62823,97.926557 1050.23059,86.7643923 1049.77006,75.6101907 C1050.15838,64.5539081 1044.46048,53.3057997 1036.54773,45.648 Z M1108.79766,42.4285337 C1127.59883,24.261954 1156.98169,24.2565023 1175.78929,42.4161041 C1184.58286,51.1095337 1189.54898,63.0856079 1189.54898,75.5983594 C1189.54898,88.1111109 1184.58286,100.087185 1175.78929,108.780615 C1156.98573,126.939795 1127.6073,126.939795 1108.80374,108.780615 C1100.04532,100.067648 1095.10376,88.0988759 1095.10376,75.5983594 C1095.10376,63.0978429 1100.04532,51.1290705 1108.80374,42.4161041 L1108.80374,42.4161041 Z M1170.61857,46.9870736 C1163.20564,39.3094544 1153.03181,35.0928689 1142.4878,35.3281494 C1131.88847,35.0982648 1121.65744,39.3099214 1114.16574,46.9870736 C1106.74599,54.571745 1102.57689,64.8641356 1102.57689,75.5968057 C1102.57689,86.3294758 1106.74599,96.6218664 1114.16574,104.206538 L1114.16574,104.206538 C1121.65335,111.890342 1131.88682,116.10098 1142.4878,115.868569 C1153.03246,116.104142 1163.20676,111.886234 1170.61857,104.206538 C1185.90125,88.3399125 1185.90125,62.8536989 1170.61857,46.9870736 Z M1302.88323,111.168 L1231.10487,28.8 L1223.54925,28.8 L1223.54925,122.387252 L1231.10487,122.387252 L1231.10487,40.032 L1302.88323,122.387252 L1310.43885,122.4 L1310.43885,28.8127481 L1302.88323,28.8 L1302.88323,111.168 Z" id="LONDON"></path>
            </g>
        </g>
    </g>
</svg>